<?xml version="1.0" encoding="utf-8"?>
<!-- Generator: Adobe Illustrator 25.0.0, SVG Export Plug-In . SVG Version: 6.00 Build 0)  -->
<svg version="1.1" id="Capa_1" xmlns="http://www.w3.org/2000/svg" xmlns:xlink="http://www.w3.org/1999/xlink" x="0px" y="0px"
	 viewBox="0 0 566.93 566.93" style="enable-background:new 0 0 566.93 566.93;" xml:space="preserve">
<style type="text/css">
	.st0{fill:#FFFFFF;}
</style>
<g>
	<path class="st0" d="M63.25,318.18l111.48-156.25h51.81v243.08h-52.39V247.64L63,405.01H11.96V161.92h51.28V318.18z"/>
	<path class="st0" d="M379.64,183.95l-32.58,35.73c-17.16-10.12-29.5-15.18-37.03-15.18c-5.8,0-10.8,2.19-15,6.57
		c-4.2,4.38-6.29,9.6-6.29,15.64c0,11.97,10.86,22.34,32.58,31.1c15.92,6.79,27.96,12.93,36.1,18.42
		c8.15,5.49,14.97,13.11,20.46,22.86c5.49,9.75,8.24,20.3,8.24,31.66c0,20.86-8.42,39-25.27,54.43s-36.75,23.14-59.71,23.14
		c-25.18,0-50.05-11.85-74.61-35.55l34.44-40.17c15.43,15.92,29.87,23.88,43.32,23.88c6.29,0,12.34-2.81,18.14-8.39
		c5.8-5.62,8.7-11.49,8.7-17.65c0-12.68-13.39-23.85-40.17-33.52c-15.3-5.58-26.17-10.81-32.58-15.69s-11.82-11.97-16.2-21.29
		c-4.38-9.32-6.57-18.85-6.57-28.6c0-21.6,7.04-39.13,21.11-52.58c14.07-13.45,32.46-20.18,55.17-20.18
		C338.79,158.59,361.38,167.05,379.64,183.95z"/>
	<path class="st0" d="M554.96,405.01H473.6c-27.74,0-49.26-6.23-64.55-18.71c-15.27-12.47-22.93-29.88-22.93-52.24
		c0-12.85,3.49-24.92,10.46-36.22c6.97-11.29,18.85-19.86,35.64-25.66c-8.76-7.41-15.12-14.7-19.07-21.92
		c-3.95-7.2-5.92-16.06-5.92-26.54c0-16.52,5.43-30.96,16.28-43.29c10.85-12.33,31.06-18.5,60.65-18.5h70.81V405.01z M490.21,202.65
		c-8.84,0-16.21,2.33-22.11,6.97c-5.91,4.64-8.86,10.31-8.86,16.99c0,8.3,3.01,15.27,9.04,20.9c6.02,5.63,13.45,8.45,22.29,8.45
		h11.99v-53.32H490.21z M481.22,297.26c-13.01,0-23,3.07-29.99,9.2s-10.49,14.87-10.49,26.26c0,21.04,14.36,31.57,43.06,31.57h18.78
		v-67.02H481.22z"/>
</g>
</svg>
